HIERARCHY
ROOT joint_Root
{
	OFFSET 0.0 0.0 0.0
	CHANNELS 6 Xposition Yposition Zposition Zrotation Xrotation Yrotation 
	JOINT Hips
	{
		OFFSET -17.1583 93.1646 452.98
		CHANNELS 6 Xposition Yposition Zposition Zrotation Xrotation Yrotation 
		JOINT Spine
		{
			OFFSET 15.7357 0.0 0.0
			CHANNELS 6 Xposition Yposition Zposition Zrotation Xrotation Yrotation 
			JOINT Chest
			{
				OFFSET 8.98455 -0.406207 0.0
				CHANNELS 6 Xposition Yposition Zposition Zrotation Xrotation Yrotation 
				JOINT Neck
				{
					OFFSET 16.3773 0.0 0.0
					CHANNELS 6 Xposition Yposition Zposition Zrotation Xrotation Yrotation 
					JOINT Head
					{
						OFFSET 6.45672 0.0 0.0
						CHANNELS 6 Xposition Yposition Zposition Zrotation Xrotation Yrotation 
						End Site
						{
							OFFSET 0.0 0.0 0.0
						}
					}
				}
				JOINT Shoulder_L
				{
					OFFSET 12.9942 -0.242716 4.98039
					CHANNELS 6 Xposition Yposition Zposition Zrotation Xrotation Yrotation 
					JOINT UpperArm_L
					{
						OFFSET 5.34809 0.0 0.0
						CHANNELS 6 Xposition Yposition Zposition Zrotation Xrotation Yrotation 
						JOINT LowerArm_L
						{
							OFFSET 24.3286 1.87007e-05 0.0
							CHANNELS 6 Xposition Yposition Zposition Zrotation Xrotation Yrotation 
							JOINT Hand_L
							{
								OFFSET 22.2916 0.0 0.0
								CHANNELS 6 Xposition Yposition Zposition Zrotation Xrotation Yrotation 
								End Site
								{
									OFFSET 0.0 0.0 0.0
								}
							}
						}
					}
				}
				JOINT Shoulder_R
				{
					OFFSET 12.9945 -0.242716 -4.98039
					CHANNELS 6 Xposition Yposition Zposition Zrotation Xrotation Yrotation 
					JOINT UpperArm_R
					{
						OFFSET -5.34813 0.0 0.0
						CHANNELS 6 Xposition Yposition Zposition Zrotation Xrotation Yrotation 
						JOINT LowerArm_R
						{
							OFFSET -24.3289 0.000322201 0.0
							CHANNELS 6 Xposition Yposition Zposition Zrotation Xrotation Yrotation 
							JOINT Hand_R
							{
								OFFSET -22.2915 -0.000108084 0.0
								CHANNELS 6 Xposition Yposition Zposition Zrotation Xrotation Yrotation 
								End Site
								{
									OFFSET 0.0 0.0 0.0
								}
							}
						}
					}
				}
			}
		}
		JOINT UpperLeg_L
		{
			OFFSET -2.19248 -6.46944 0.0
			CHANNELS 6 Xposition Yposition Zposition Zrotation Xrotation Yrotation 
			JOINT LowerLeg_L
			{
				OFFSET 39.0811 0.0 -1.23785e-05
				CHANNELS 6 Xposition Yposition Zposition Zrotation Xrotation Yrotation 
				JOINT Foot_L
				{
					OFFSET 40.9854 0.0 -1.26872e-05
					CHANNELS 6 Xposition Yposition Zposition Zrotation Xrotation Yrotation 
					JOINT Toes_L
					{
						OFFSET 11.7543 0.0 0.0
						CHANNELS 6 Xposition Yposition Zposition Zrotation Xrotation Yrotation 
						End Site
						{
							OFFSET 0.0 0.0 0.0
						}
					}
				}
			}
		}
		JOINT UpperLeg_R
		{
			OFFSET -2.19251 6.46944 0.0
			CHANNELS 6 Xposition Yposition Zposition Zrotation Xrotation Yrotation 
			JOINT LowerLeg_R
			{
				OFFSET -39.0811 -0.00228153 -0.0401928
				CHANNELS 6 Xposition Yposition Zposition Zrotation Xrotation Yrotation 
				JOINT Foot_R
				{
					OFFSET -40.9854 0.0 0.0
					CHANNELS 6 Xposition Yposition Zposition Zrotation Xrotation Yrotation 
					JOINT Toes_R
					{
						OFFSET -11.7543 0.0 0.0
						CHANNELS 6 Xposition Yposition Zposition Zrotation Xrotation Yrotation 
						End Site
						{
							OFFSET 0.0 0.0 0.0
						}
					}
				}
			}
		}
	}
}
MOTION
Frames:	8
Frame Time:	0.0333333
0.000000 0.000000 0.000000 0.000000 0.000000 -0.000000 -2.482390 92.966800 1.168140 88.061800 3.518690 1.241150 15.735700 0.000005 -0.000001 71.522300 87.564400 -70.230700 8.984550 -0.406207 -0.000000 -3.126390 -1.665910 2.538250 16.377300 -0.000001 -0.000001 4.291690 1.934000 -2.286100 6.456720 -0.000001 -0.000000 3.480320 2.395730 -1.857640 12.994200 -0.242716 4.980390 -92.586300 7.748840 -71.478700 5.348090 -0.000007 -0.000001 -73.425700 23.641000 3.038230 24.328600 0.000019 0.000005 11.793800 24.222000 -26.972500 22.291600 -0.000001 0.000005 -1.750050 4.916730 9.042440 12.994500 -0.242716 -4.980390 88.922900 3.485430 -72.815600 -5.348130 -0.000001 -0.000004 -71.616200 29.310200 -1.218510 -24.328900 0.000322 -0.000009 0.177349 0.627619 -15.868200 -22.291500 -0.000108 -0.000004 -8.682310 5.337830 -1.016020 -2.192480 -6.469440 -0.000000 -172.776000 -4.953150 -0.794073 39.081100 -0.000007 -0.000012 0.040895 -0.142791 15.981600 40.985400 -0.000006 -0.000013 -1.557030 12.552800 -69.236600 11.754300 -0.000000 0.000003 -0.001459 0.189354 -8.895140 -2.192510 6.469440 -0.000001 178.313000 8.831340 -178.005000 -39.081100 -0.002282 -0.040193 0.020702 -0.075765 12.911600 -40.985400 0.000008 0.000006 -5.356540 4.500970 -68.900600 -11.754300 -0.000006 -0.000006 -0.010166 0.272543 -5.500350
0.000000 0.000000 0.000000 0.000000 0.000000 -0.000000 -2.343170 92.984800 1.247940 88.079100 3.640730 0.933111 15.735700 0.000005 -0.000001 67.945200 87.606100 -66.700000 8.984550 -0.406207 -0.000000 -3.307350 -1.917200 2.435890 16.377300 -0.000001 -0.000001 4.190400 1.905300 -2.530960 6.456720 -0.000001 -0.000000 3.089330 2.389190 -2.303010 12.994200 -0.242716 4.980390 -92.543300 7.601930 -71.440100 5.348090 -0.000007 -0.000001 -73.408000 22.674300 3.311540 24.328600 0.000019 0.000005 12.109000 24.503400 -27.352100 22.291600 -0.000001 0.000005 -1.864790 4.919240 8.991850 12.994500 -0.242716 -4.980390 88.946800 3.306410 -72.320300 -5.348130 -0.000001 -0.000004 -70.085700 27.013600 -1.657360 -24.328900 0.000322 -0.000009 0.359821 1.361040 -14.852200 -22.291500 -0.000108 -0.000004 -12.530200 5.335710 -0.951446 -2.192480 -6.469440 -0.000000 -172.919000 -4.871840 -0.977347 39.081100 -0.000007 -0.000012 0.043654 -0.153985 15.828100 40.985400 -0.000006 -0.000013 -1.469670 12.532500 -69.289900 11.754300 -0.000000 0.000003 -0.001473 0.189545 -8.887390 -2.192510 6.469440 -0.000001 178.166000 9.194900 -178.044000 -39.081100 -0.002282 -0.040193 0.017151 -0.062182 12.527200 -40.985400 0.000008 0.000006 -5.679270 4.780610 -68.685700 -11.754300 -0.000006 -0.000006 -0.010551 0.275377 -5.384410
0.000000 0.000000 0.000000 0.000000 0.000000 -0.000000 -2.209710 93.002000 1.367150 88.050100 3.965410 0.616667 15.735700 0.000005 -0.000001 62.787500 87.595700 -61.613300 8.984550 -0.406207 -0.000000 -3.466150 -2.312870 2.279330 16.377300 -0.000001 -0.000001 3.955940 1.818650 -2.709970 6.456720 -0.000001 -0.000000 2.557170 2.357940 -2.935660 12.994200 -0.242716 4.980390 -92.507700 7.503850 -71.460800 5.348090 -0.000007 -0.000001 -73.320800 21.154600 3.686830 24.328600 0.000019 0.000005 12.219900 24.382300 -27.681900 22.291600 -0.000001 0.000005 -1.584120 4.912540 9.126630 12.994500 -0.242716 -4.980390 88.929200 3.246470 -71.734000 -5.348130 -0.000001 -0.000004 -67.392400 24.739000 -2.248210 -24.328900 0.000322 -0.000009 0.744632 3.064620 -13.683500 -22.291500 -0.000108 -0.000004 -16.585200 5.311750 -0.258020 -2.192480 -6.469440 -0.000000 -172.980000 -4.841800 -1.235960 39.081100 -0.000007 -0.000012 0.044503 -0.157925 15.738100 40.985400 -0.000006 -0.000013 -1.356750 12.754200 -69.363700 11.754300 -0.000000 0.000003 -0.001714 0.192710 -8.758690 -2.192510 6.469440 -0.000001 178.056000 9.566270 -178.000000 -39.081100 -0.002282 -0.040193 0.011342 -0.037605 12.019700 -40.985400 0.000008 0.000006 -6.353500 4.997240 -68.303600 -11.754300 -0.000006 -0.000006 -0.010341 0.273832 -5.447630
0.000000 0.000000 0.000000 0.000000 0.000000 -0.000000 -2.059840 93.031200 1.467920 88.046800 4.327070 0.301574 15.735700 0.000005 -0.000001 58.531100 87.553900 -57.507900 8.984550 -0.406207 -0.000000 -3.570760 -2.653630 1.964620 16.377300 -0.000001 -0.000001 3.583740 1.552890 -2.928710 6.456720 -0.000001 -0.000000 1.902190 2.089830 -3.611820 12.994200 -0.242716 4.980390 -92.470400 7.434260 -71.559700 5.348090 -0.000007 -0.000001 -72.992900 19.717800 3.931860 24.328600 0.000019 0.000005 12.128000 23.894000 -27.947500 22.291600 -0.000001 0.000005 -1.302330 4.906290 9.252170 12.994500 -0.242716 -4.980390 88.903700 3.225640 -71.217200 -5.348130 -0.000001 -0.000004 -63.703100 21.776600 -2.861140 -24.328900 0.000322 -0.000009 1.116140 5.236870 -12.061000 -22.291500 -0.000108 -0.000004 -19.673800 5.289800 0.357711 -2.192480 -6.469440 -0.000000 -173.095000 -4.732970 -1.419770 39.081100 -0.000007 -0.000012 0.046519 -0.167583 15.514300 40.985400 -0.000006 -0.000013 -1.238250 12.934600 -69.410200 11.754300 -0.000000 0.000003 -0.001717 0.192739 -8.757520 -2.192510 6.469440 -0.000001 177.900000 10.108100 -177.867000 -39.081100 -0.002282 -0.040193 0.005754 -0.012066 11.331300 -40.985400 0.000008 0.000006 -6.950520 5.210370 -67.834800 -11.754300 -0.000006 -0.000006 -0.010500 0.275004 -5.399690
0.000000 0.000000 0.000000 0.000000 0.000000 -0.000000 -1.925810 93.050000 1.575820 87.977600 4.685910 0.000474 15.735700 0.000005 -0.000001 55.811500 87.514800 -55.014400 8.984550 -0.406207 -0.000000 -3.636250 -2.870680 1.504030 16.377300 -0.000001 -0.000001 3.097450 1.141440 -3.208060 6.456720 -0.000001 -0.000000 1.116100 1.553230 -4.495370 12.994200 -0.242716 4.980390 -92.450300 7.413680 -71.652900 5.348090 -0.000007 -0.000001 -72.196900 19.187400 4.012910 24.328600 0.000019 0.000005 12.291000 23.620500 -28.535400 22.291600 -0.000001 0.000005 -1.135140 4.908190 9.214050 12.994500 -0.242716 -4.980390 88.911000 3.108210 -70.680200 -5.348130 -0.000001 -0.000004 -59.338700 17.428200 -3.292860 -24.328900 0.000322 -0.000009 1.354470 7.583630 -10.166100 -22.291500 -0.000108 -0.000004 -20.730500 5.276570 0.719917 -2.192480 -6.469440 -0.000000 -173.097000 -4.825530 -1.665660 39.081100 -0.000007 -0.000012 0.047190 -0.170964 15.430700 40.985400 -0.000006 -0.000013 -1.108820 13.289100 -69.474200 11.754300 -0.000000 0.000003 -0.001640 0.191739 -8.798180 -2.192510 6.469440 -0.000001 177.818000 10.675300 -177.709000 -39.081100 -0.002282 -0.040193 0.001479 0.009911 10.623900 -40.985400 0.000008 0.000006 -7.580980 5.482900 -67.335100 -11.754300 -0.000006 -0.000006 -0.010567 0.275496 -5.379540
0.000000 0.000000 0.000000 0.000000 0.000000 -0.000000 -1.794150 93.063000 1.701410 87.863500 4.875440 -0.407561 15.735700 0.000005 -0.000001 54.064800 87.561700 -53.563800 8.984550 -0.406207 -0.000000 -3.807080 -2.910720 0.905795 16.377300 -0.000001 -0.000001 2.543240 0.646507 -3.613960 6.456720 -0.000001 -0.000000 0.443133 0.858811 -5.673800 12.994200 -0.242716 4.980390 -92.421400 7.390750 -71.802900 5.348090 -0.000007 -0.000001 -71.137500 18.683400 4.067990 24.328600 0.000019 0.000005 12.641400 23.612500 -29.246300 22.291600 -0.000001 0.000005 -1.243900 4.909270 9.192540 12.994500 -0.242716 -4.980390 89.001100 2.771640 -70.171700 -5.348130 -0.000001 -0.000004 -54.388800 11.879200 -3.690790 -24.328900 0.000322 -0.000009 1.432230 10.184200 -8.055080 -22.291500 -0.000108 -0.000004 -20.329600 5.261310 1.131970 -2.192480 -6.469440 -0.000000 -173.099000 -4.705860 -2.035590 39.081100 -0.000007 -0.000012 0.048019 -0.173956 15.431900 40.985400 -0.000006 -0.000013 -1.010390 13.300200 -69.603200 11.754300 -0.000000 0.000003 -0.001771 0.193447 -8.728750 -2.192510 6.469440 -0.000001 177.807000 11.036700 -177.635000 -39.081100 -0.002282 -0.040193 -0.001191 0.026114 9.841610 -40.985400 0.000008 0.000006 -8.262070 5.769490 -66.756900 -11.754300 -0.000006 -0.000006 -0.010398 0.274255 -5.430320
0.000000 0.000000 0.000000 0.000000 0.000000 -0.000000 -1.652770 93.079200 1.848600 87.808500 4.780340 -0.750267 15.735700 0.000005 -0.000001 53.738700 87.650900 -53.646700 8.984550 -0.406207 -0.000000 -3.977820 -2.786450 0.087287 16.377300 -0.000001 -0.000001 2.058930 0.304964 -4.235100 6.456720 -0.000001 -0.000000 -0.210090 0.214184 -6.936720 12.994200 -0.242716 4.980390 -92.428800 7.427880 -71.835300 5.348090 -0.000007 -0.000001 -69.760300 17.846700 4.161790 24.328600 0.000019 0.000005 12.950900 23.497500 -29.975200 22.291600 -0.000001 0.000005 -1.271240 4.906820 9.241460 12.994500 -0.242716 -4.980390 89.146700 2.300820 -69.644500 -5.348130 -0.000001 -0.000004 -48.887600 5.957850 -4.172060 -24.328900 0.000322 -0.000009 1.263720 12.265900 -5.933340 -22.291500 -0.000108 -0.000004 -18.956500 5.251080 1.404060 -2.192480 -6.469440 -0.000000 -173.178000 -4.586670 -2.153890 39.081100 -0.000007 -0.000012 0.046870 -0.172061 15.237900 40.985400 -0.000006 -0.000013 -0.962800 13.009000 -69.677200 11.754300 -0.000000 0.000003 -0.001822 0.194092 -8.702520 -2.192510 6.469440 -0.000001 177.709000 11.360800 -177.517000 -39.081100 -0.002282 -0.040193 -0.002232 0.034768 9.105310 -40.985400 0.000008 0.000006 -8.899400 6.203170 -66.273100 -11.754300 -0.000006 -0.000006 -0.010342 0.273847 -5.447010
0.000000 0.000000 0.000000 0.000000 0.000000 -0.000000 -1.539330 93.091500 1.994330 87.694700 4.349500 -1.084410 15.735700 0.000005 -0.000001 53.370700 87.742400 -53.742400 8.984550 -0.406207 -0.000000 -4.153380 -2.653300 -0.840222 16.377300 -0.000001 -0.000001 1.613760 0.178215 -4.977280 6.456720 -0.000001 -0.000000 -0.895796 0.021454 -8.358390 12.994200 -0.242716 4.980390 -92.468900 7.475650 -71.664500 5.348090 -0.000007 -0.000001 -68.233100 16.558700 4.232910 24.328600 0.000019 0.000005 13.075200 23.316300 -30.403400 22.291600 -0.000001 0.000005 -0.980670 4.911870 9.140330 12.994500 -0.242716 -4.980390 89.412400 1.547470 -69.203100 -5.348130 -0.000001 -0.000004 -43.539500 -1.478080 -5.027180 -24.328900 0.000322 -0.000009 0.834153 12.809500 -3.761880 -22.291500 -0.000108 -0.000004 -16.268200 5.207530 2.524130 -2.192480 -6.469440 -0.000000 -173.192000 -4.704740 -2.247280 39.081100 -0.000007 -0.000012 0.045575 -0.168829 15.106900 40.985400 -0.000006 -0.000013 -0.933971 12.631000 -69.796800 11.754300 -0.000000 0.000003 -0.001852 0.194472 -8.687040 -2.192510 6.469440 -0.000001 177.705000 11.304100 -177.420000 -39.081100 -0.002282 -0.040193 -0.002177 0.037755 8.315440 -40.985400 0.000008 0.000006 -9.483780 6.579950 -65.669900 -11.754300 -0.000006 -0.000006 -0.010187 0.272699 -5.493990
